<svg width="61" height="60" viewBox="0 0 61 60" fill="none" xmlns="http://www.w3.org/2000/svg">
<path d="M59.9101 14.2731C59.8415 14.1211 59.7467 13.9823 59.6301 13.8631C59.5132 13.7508 59.3779 13.6595 59.2301 13.5931C59.077 13.5335 58.9143 13.503 58.7501 13.5031C48.9301 13.5031 43.4901 16.0031 43.2601 16.1231C43.1009 16.1961 42.9594 16.3027 42.8455 16.4357C42.7315 16.5686 42.6478 16.7247 42.6001 16.8931C42.514 17.1969 42.5462 17.5221 42.6901 17.8031C40.8001 17.0931 38.1601 16.0031 35.5101 14.8631C31.0001 12.8431 28.1001 13.4631 24.8801 16.0031H14.8801C14.9334 15.6031 14.9734 15.2231 15.0001 14.8631C15.0168 14.6785 14.9914 14.4925 14.9255 14.3193C14.8597 14.146 14.7552 13.99 14.6201 13.8631C12.4701 11.8131 3.90006 11.1531 1.33006 11.0031C1.15831 10.9909 0.985887 11.0148 0.823962 11.0733C0.662037 11.1319 0.514214 11.2238 0.390058 11.3431C0.270436 11.462 0.172318 11.6007 0.100058 11.7531C0.0324472 11.9111 -0.00160603 12.0813 5.81843e-05 12.2531V34.7531C5.81843e-05 35.0847 0.131754 35.4026 0.366175 35.637C0.600595 35.8714 0.918538 36.0031 1.25006 36.0031H8.75006C9.01341 36.0021 9.26982 35.9186 9.48326 35.7644C9.69671 35.6101 9.85646 35.3929 9.94006 35.1431C9.94006 35.0631 10.0701 34.7331 10.2301 34.2331C10.5201 34.5231 10.8301 34.8431 11.1501 35.2331C12.2701 36.3931 13.4201 37.6031 14.1501 38.2331C18.8001 42.1231 24.4001 46.3331 25.5101 47.0631C26.8625 47.9117 28.4064 48.4068 30.0001 48.5031C31.0165 48.57 32.0235 48.2722 32.8401 47.6631C33.7515 48.0281 34.7686 48.0281 35.6801 47.6631C36.8159 47.2157 37.7434 46.3596 38.2801 45.2631C39.3476 45.4678 40.4529 45.3094 41.4201 44.8131C42.3585 44.3646 43.1014 43.5896 43.5101 42.6331C44.5566 42.6803 45.5809 42.3221 46.3701 41.6331C46.9166 41.1846 47.3309 40.596 47.5687 39.9301C47.8065 39.2643 47.8588 38.5464 47.7201 37.8531L49.7201 36.5131C49.8601 36.9631 49.9701 37.3431 50.0501 37.6431C50.1264 37.9052 50.284 38.1363 50.5001 38.3031C50.7179 38.4711 50.985 38.5624 51.2601 38.5631H58.7601C58.9285 38.562 59.0951 38.5268 59.2496 38.4596C59.4041 38.3925 59.5435 38.2948 59.6593 38.1725C59.7751 38.0501 59.865 37.9056 59.9236 37.7476C59.9821 37.5896 60.0081 37.4214 60.0001 37.2531V14.7531C60.0011 14.5888 59.9706 14.4259 59.9101 14.2731ZM7.84006 33.5031H2.50006V13.5931C6.50006 13.9131 10.8501 14.5931 12.4301 15.3631C11.7701 20.8431 8.77006 30.5631 7.84006 33.5031ZM44.7501 39.6731C44.5585 39.8703 44.3121 40.0054 44.0428 40.0607C43.7735 40.1159 43.4938 40.0889 43.2401 39.9831C42.2401 39.2031 38.3501 35.1831 35.9101 32.6331C35.6806 32.3931 35.3653 32.2541 35.0333 32.2466C34.7014 32.2391 34.3801 32.3637 34.1401 32.5931C33.9 32.8225 33.761 33.1379 33.7535 33.4698C33.746 33.8018 33.8706 34.1231 34.1001 34.3631C34.6801 34.9731 39.3501 39.8431 41.2201 41.5431C41.1437 41.7641 41.0226 41.967 40.8643 42.139C40.706 42.3111 40.5139 42.4487 40.3001 42.5431C40.0095 42.7259 39.6751 42.827 39.3319 42.8358C38.9888 42.8446 38.6496 42.7608 38.3501 42.5931C36.8601 41.4031 33.0901 37.4031 32.2401 36.4731C32.1295 36.3523 31.9961 36.2546 31.8475 36.1857C31.699 36.1167 31.5383 36.0778 31.3746 36.0713C31.211 36.0648 31.0477 36.0908 30.8942 36.1477C30.7406 36.2047 30.5999 36.2915 30.4801 36.4031C30.3583 36.5139 30.2595 36.6476 30.1896 36.7966C30.1196 36.9457 30.0797 37.107 30.0723 37.2715C30.0649 37.436 30.09 37.6003 30.1462 37.755C30.2025 37.9097 30.2887 38.0518 30.4001 38.1731C30.4001 38.1731 34.0001 42.1031 36.1101 44.0031C35.9906 44.3061 35.8112 44.5818 35.5827 44.8137C35.3542 45.0457 35.0812 45.2292 34.7801 45.3531C34.5441 45.458 34.2831 45.493 34.0278 45.454C33.7726 45.415 33.5339 45.3037 33.3401 45.1331C31.5601 43.6331 27.9101 39.7531 27.2001 38.9831C27.0878 38.863 26.9529 38.7661 26.8032 38.6981C26.6535 38.63 26.4918 38.5921 26.3275 38.5866C26.1631 38.581 25.9993 38.6078 25.8453 38.6656C25.6913 38.7233 25.5502 38.8109 25.4301 38.9231C25.3099 39.0354 25.213 39.1703 25.145 39.32C25.0769 39.4697 25.0391 39.6313 25.0335 39.7957C25.0279 39.9601 25.0548 40.1239 25.1125 40.2779C25.1703 40.4319 25.2578 40.573 25.3701 40.6931C26.2101 41.6031 28.7301 44.2731 30.6201 46.0531C30.4125 46.0506 30.2053 46.0339 30.0001 46.0031C28.9172 45.9074 27.8705 45.5654 26.9401 45.0031C26.0601 44.4231 20.5601 40.3231 15.8001 36.3431C15.1401 35.7831 13.9801 34.5731 12.9601 33.5131C12.2101 32.7231 11.5201 32.0131 11.0701 31.5831C12.0701 28.1431 13.6201 22.8531 14.4501 18.5831H22.1201C20.4101 20.3031 18.1201 23.7431 18.7101 26.2631C18.8349 26.7955 19.0988 27.2852 19.4747 27.6822C19.8507 28.0793 20.3253 28.3695 20.8501 28.5231C23.6901 29.4531 26.2701 28.5231 28.2001 26.0031C28.8503 25.9051 29.4813 25.706 30.0701 25.4131L31.0001 25.0031C32.4301 26.3431 34.3601 27.9131 36.3901 29.5531C40.0701 32.5531 44.2301 35.8931 45.1701 37.8431C45.3245 38.1493 45.367 38.4997 45.2903 38.8339C45.2136 39.1681 45.0225 39.465 44.7501 39.6731ZM46.6201 35.5131C44.9001 33.2131 41.3601 30.3431 37.9201 27.5131C35.6501 25.6731 33.5001 23.9431 32.1301 22.5731C31.9655 22.4029 31.7546 22.2847 31.5236 22.2332C31.2925 22.1816 31.0514 22.199 30.8301 22.2831C29.9801 22.5831 29.4601 22.8231 29.0501 23.0031C28.5317 23.2717 27.9628 23.4284 27.3801 23.4631C27.1965 23.4817 27.0191 23.5397 26.8601 23.6331C26.6971 23.7245 26.5596 23.8551 26.4601 24.0131C24.6901 26.6531 22.8601 26.4231 21.6401 26.0131C21.2501 25.8831 21.1801 25.7231 21.1401 25.5631C20.8801 24.4631 22.2001 21.9031 23.9101 20.2031C28.0001 16.1831 30.0601 15.1631 34.4901 17.1431C38.6901 19.0031 42.8801 20.5531 44.1701 21.0031C45.6401 24.5731 47.6201 30.1231 48.9101 34.0031L46.6201 35.5131ZM57.5001 36.0031H52.1801C51.0001 32.1431 47.5001 22.0731 45.5501 17.9131C49.417 16.6889 53.4442 16.0452 57.5001 16.0031V36.0031Z" fill="#FCDD03"/>
</svg>
