<svg width="52" height="60" viewBox="0 0 52 60" fill="none" xmlns="http://www.w3.org/2000/svg">
<path d="M51.4288 38.6105C50.9243 37.7682 48.8573 35.2649 43.4422 38.4186L34.0379 43.8961C33.6503 44.1218 33.2571 44.292 32.8507 44.4079C32.9869 44.148 33.0934 43.8736 33.1684 43.5899C33.6633 41.7426 32.567 39.8146 30.6726 39.2004C30.6325 39.1874 30.5915 39.1771 30.55 39.1696C27.8557 38.6836 25.1925 37.7208 23.0527 36.9473C22.3071 36.6777 21.6029 36.4232 21.0033 36.2288C18.5572 35.4352 16.3553 36.4119 14.5241 37.4723L7.61742 41.4711L7.00898 40.396C6.70417 39.8575 6.2066 39.4695 5.60777 39.3036C5.00929 39.1376 4.38269 39.2141 3.84421 39.5188L1.20574 41.0121C0.0914012 41.6428 -0.301997 43.0625 0.328589 44.1768L8.08605 57.8837C8.39085 58.4222 8.88843 58.8102 9.48726 58.9762C9.69433 59.0336 9.90468 59.062 10.1135 59.062C10.5087 59.062 10.8985 58.9604 11.2508 58.761L13.8895 57.2676C15.0039 56.6369 15.3974 55.2173 14.7667 54.1029L14.0171 52.7786L15.4867 51.9303L27.4904 55.1466C28.1641 55.3272 28.8342 55.417 29.4935 55.4168C30.8269 55.4168 32.1151 55.0497 33.2926 54.3248L50.3592 43.8159C51.9601 42.8301 52.47 40.349 51.4288 38.6105ZM12.9659 55.6357L10.3271 57.1292C10.1887 57.2076 10.0553 57.1879 9.98789 57.1694C9.92062 57.1507 9.79605 57.0987 9.71777 56.9603L1.96031 43.2534C1.84089 43.0424 1.91835 42.7633 2.12917 42.644L4.76777 41.1507C4.83357 41.1132 4.90803 41.0936 4.98375 41.0938C5.03425 41.0938 5.07714 41.1023 5.10703 41.1106C5.17429 41.1292 5.29874 41.1811 5.37714 41.3195L13.1347 55.0264C13.2541 55.2374 13.1767 55.5164 12.9659 55.6357ZM28.9996 46.172L30.1692 46.3622C31.9427 46.6458 33.5168 46.3691 34.9814 45.5164L44.3858 40.0388C47.0378 38.4941 49.0693 38.3202 49.8201 39.5738C50.3343 40.4322 50.1101 41.7672 49.3758 42.2192L32.3093 52.7281C30.981 53.5458 29.523 53.7503 27.9756 53.3355L15.5966 50.0186C15.3564 49.9544 15.1006 49.9881 14.8853 50.1122L13.0935 51.1466L8.54097 43.1028L15.4635 39.0947C17.0113 38.1986 18.6835 37.4469 20.4247 38.012C20.9948 38.1969 21.653 38.4348 22.415 38.7104C24.6035 39.5016 27.3227 40.4847 30.1485 41.0022C31.075 41.3297 31.593 42.2239 31.357 43.1044C31.0462 44.2642 30.0732 44.4079 29.2976 44.3194C27.9187 44.0355 26.6064 43.6611 25.2178 43.2645C24.557 43.0758 23.8737 42.8806 23.1709 42.6923C23.052 42.6604 22.9279 42.6523 22.8059 42.6683C22.6838 42.6844 22.5661 42.7244 22.4595 42.7859C22.3529 42.8475 22.2594 42.9294 22.1845 43.0271C22.1095 43.1248 22.0546 43.2363 22.0227 43.3552C21.9908 43.4741 21.9827 43.5981 21.9988 43.7202C22.0148 43.8423 22.0548 43.96 22.1164 44.0666C22.1779 44.1732 22.2599 44.2667 22.3575 44.3416C22.4552 44.4166 22.5667 44.4715 22.6856 44.5034C23.3735 44.6877 24.0493 44.8807 24.7029 45.0673C26.1404 45.4778 27.4982 45.8656 28.9621 46.1649M5.48273 43.7083C5.50063 43.8307 5.49425 43.9554 5.46394 44.0754C5.43363 44.1953 5.37998 44.3081 5.30607 44.4073C5.23216 44.5066 5.13943 44.5902 5.03317 44.6536C4.92691 44.717 4.80921 44.7588 4.68679 44.7767C4.56438 44.7946 4.43963 44.7882 4.31968 44.7579C4.19973 44.7276 4.08693 44.6739 3.98772 44.6C3.88851 44.5261 3.80482 44.4334 3.74146 44.3271C3.67809 44.2209 3.63627 44.1032 3.61839 43.9807C3.5865 43.7355 3.65231 43.4875 3.80162 43.2904C3.95092 43.0933 4.17176 42.9627 4.41647 42.9269C4.66117 42.8912 4.91013 42.9531 5.10961 43.0992C5.30909 43.2454 5.44311 43.4642 5.48273 43.7083ZM19.3106 15.5808C19.7443 16.4267 19.9621 16.8511 20.0243 17.2041C20.0865 17.5569 20.0271 18.0303 19.909 18.9734C19.8792 19.2107 19.8461 19.475 19.8105 19.7719C19.6153 21.4052 20.5001 22.9376 22.0121 23.5853C22.2871 23.7031 22.5325 23.8064 22.7528 23.8994L22.8694 23.9486L19.3849 31.4327C19.3126 31.588 19.2842 31.7601 19.3029 31.9304C19.3216 32.1007 19.3866 32.2627 19.4908 32.3987C19.595 32.5346 19.7345 32.6394 19.8941 32.7017C20.0537 32.764 20.2274 32.7813 20.3961 32.7518L24.2262 32.0827L26.1796 35.4443C26.2656 35.5925 26.3907 35.7142 26.5411 35.7963C26.6915 35.8784 26.8615 35.9177 27.0327 35.9099C27.2038 35.9021 27.3696 35.8476 27.512 35.7522C27.6543 35.6569 27.7678 35.5243 27.8401 35.369L31.2991 27.9394L31.2308 27.9077C31.8231 27.7285 32.1725 27.6384 32.4591 27.6384C32.8174 27.6384 33.2733 27.779 34.1815 28.0593L34.4824 28.152L36.9787 33.9476C37.0465 34.105 37.1561 34.2408 37.2956 34.3403C37.4352 34.4397 37.5993 34.499 37.7701 34.5118C37.941 34.5245 38.1121 34.4901 38.2648 34.4124C38.4176 34.3347 38.5461 34.2166 38.6364 34.071L40.6864 30.7675L44.4953 31.5476C44.6631 31.582 44.8372 31.5697 44.9986 31.5121C45.1599 31.4545 45.3024 31.3538 45.4106 31.2209C45.5187 31.088 45.5884 30.928 45.612 30.7583C45.6356 30.5886 45.6122 30.4157 45.5444 30.2583L42.7071 23.6705C42.7735 23.6423 42.8398 23.614 42.9061 23.5855C44.4182 22.938 45.3029 21.4054 45.1077 19.7721C45.0722 19.4752 45.0391 19.2109 45.0094 18.9737C44.891 18.0306 44.8317 17.5573 44.8939 17.2043C44.9562 16.8515 45.1739 16.4269 45.6075 15.5812C45.7166 15.3684 45.8381 15.1314 45.9731 14.8646C46.7153 13.3966 46.4079 11.6539 45.2086 10.5283C45.013 10.3449 44.8168 10.1621 44.6201 9.97984C43.9233 9.33331 43.5735 9.00894 43.3943 8.69851C43.2151 8.3882 43.1089 7.92308 42.8977 6.99648C42.8444 6.76328 42.7853 6.50359 42.7169 6.21238C42.3418 4.61078 40.9862 3.47335 39.3438 3.38207C39.0452 3.36542 38.7793 3.3523 38.5405 3.34035C37.5912 3.29312 37.1147 3.26933 36.7779 3.14675C36.4411 3.02417 36.0608 2.73613 35.3033 2.16214C35.1127 2.01777 34.9004 1.85699 34.661 1.67769C33.3442 0.691909 31.5746 0.691909 30.2578 1.67769C30.0184 1.85699 29.8062 2.01777 29.6155 2.16214C28.8579 2.73613 28.4777 3.02417 28.1409 3.14675C27.8041 3.26933 27.3278 3.29312 26.3783 3.34035C26.1395 3.3523 25.8735 3.36542 25.575 3.38207C23.9326 3.47347 22.577 4.61089 22.2019 6.21238C22.1337 6.50359 22.0745 6.76316 22.0212 6.99636C21.8098 7.92308 21.7037 8.38808 21.5244 8.69851C21.3452 9.00882 20.9954 9.33332 20.2987 9.97972C20.102 10.162 19.9058 10.3448 19.7101 10.5282C18.5107 11.6539 18.2034 13.3964 18.9455 14.8644C19.0663 15.1037 19.1881 15.3425 19.3106 15.5808ZM26.8984 32.9492L25.5191 30.5755C25.4228 30.4098 25.278 30.2776 25.1042 30.1967C24.9304 30.1158 24.736 30.0901 24.5471 30.1231L21.8428 30.5956L24.516 24.854C24.7372 25.1004 24.9841 25.4825 25.3916 26.1135C25.5213 26.3145 25.6658 26.5382 25.8295 26.7886C26.525 27.8521 27.6755 28.4552 28.8889 28.4552C28.9233 28.4552 28.958 28.4523 28.9924 28.4514L26.8984 32.9492ZM40.4224 28.7993C40.2346 28.7609 40.0396 28.7809 39.8635 28.8568C39.6875 28.9326 39.5389 29.0606 39.4378 29.2234L37.9903 31.5561L36.6321 28.4027C37.6152 28.2377 38.5097 27.6737 39.0885 26.7886C39.2351 26.5641 39.381 26.3392 39.5263 26.1137C40.0419 25.3152 40.3007 24.9144 40.5752 24.6841C40.6823 24.5942 40.8152 24.511 40.9889 24.4212L43.1118 29.3501L40.4224 28.7993ZM20.9928 11.8952C21.208 11.6932 21.4005 11.5145 21.5736 11.3541C23.2377 9.81039 23.344 9.62617 23.8489 7.4132C23.9014 7.18316 23.9598 6.9271 24.0272 6.63976C24.2137 5.84335 24.8621 5.29937 25.6788 5.2539C25.9734 5.23749 26.2357 5.22449 26.4714 5.21265C28.7385 5.0998 28.9383 5.02703 30.7475 3.65628C30.9355 3.51378 31.145 3.35511 31.3813 3.17828C31.7087 2.93312 32.0839 2.81066 32.4593 2.81066C32.8345 2.81066 33.2098 2.93312 33.5373 3.17828C33.749 3.33687 33.9602 3.49617 34.1709 3.65617C35.9802 5.02691 36.18 5.09957 38.4471 5.21253C38.6828 5.22425 38.945 5.23726 39.2396 5.25378C40.0564 5.29925 40.7047 5.84324 40.8913 6.63964C40.9585 6.92699 41.017 7.18316 41.0695 7.4132C41.5744 9.62605 41.6807 9.81027 43.3448 11.354C43.5389 11.5337 43.7325 11.7141 43.9255 11.895C44.522 12.4548 44.6689 13.2883 44.2998 14.0184C44.1667 14.2817 44.0468 14.5155 43.9392 14.7253C42.9035 16.7452 42.8666 16.9546 43.149 19.2068C43.1783 19.4409 43.211 19.7015 43.246 19.9944C43.3432 20.8067 42.92 21.5396 42.168 21.8616C41.8969 21.9777 41.6548 22.0798 41.4373 22.1714C39.3456 23.0529 39.1827 23.1896 37.9513 25.0964C37.808 25.3188 37.664 25.5407 37.5193 25.7622C37.0717 26.4467 36.2766 26.7361 35.4933 26.4996C35.2108 26.4142 34.9598 26.3369 34.7345 26.2673C32.5657 25.5981 32.353 25.598 30.1837 26.2673C29.9584 26.3369 29.7074 26.4142 29.425 26.4996C28.6421 26.7362 27.8466 26.4468 27.3989 25.7622C27.2542 25.5407 27.1102 25.3187 26.9668 25.0963C25.7355 23.1896 25.5727 23.0528 23.4809 22.1714C23.2635 22.0798 23.0215 21.9778 22.7502 21.8616C21.9982 21.5396 21.575 20.8067 21.6722 19.9943C21.7072 19.7014 21.7399 19.4406 21.7693 19.2066C22.0518 16.9544 22.0148 16.7451 20.979 14.7251C20.8714 14.5152 20.7516 14.2816 20.6184 14.0182C20.2494 13.2884 20.3964 12.455 20.9928 11.8952ZM32.4589 23.2923C37.1989 23.2923 41.0552 19.436 41.0552 14.696C41.0552 9.95605 37.1989 6.09988 32.4589 6.09988C27.7189 6.09988 23.8628 9.95617 23.8628 14.696C23.8628 19.436 27.7191 23.2923 32.4589 23.2923ZM32.4589 7.97476C36.165 7.97476 39.1802 10.9899 39.1802 14.6959C39.1802 18.402 36.1651 21.4172 32.4589 21.4172C28.7528 21.4172 25.7378 18.4021 25.7378 14.6959C25.7378 10.9898 28.7529 7.97476 32.4589 7.97476ZM30.0724 18.0181L27.6598 15.6053C27.5727 15.5183 27.5036 15.4149 27.4565 15.3012C27.4094 15.1874 27.3852 15.0655 27.3852 14.9424C27.3852 14.8193 27.4094 14.6974 27.4565 14.5837C27.5036 14.47 27.5727 14.3666 27.6598 14.2796C27.7468 14.1925 27.8501 14.1235 27.9639 14.0763C28.0776 14.0292 28.1995 14.005 28.3226 14.005C28.4457 14.005 28.5676 14.0292 28.6814 14.0763C28.7951 14.1235 28.8985 14.1925 28.9855 14.2796L30.7666 16.0608L35.9653 11.3428C36.1494 11.1757 36.3924 11.0886 36.6408 11.1007C36.8891 11.1127 37.1225 11.2229 37.2896 11.4071C37.4567 11.5912 37.5439 11.8342 37.5318 12.0825C37.5198 12.3309 37.4096 12.5643 37.2254 12.7314L31.3653 18.0495C31.193 18.2062 30.9684 18.293 30.7355 18.2928C30.6123 18.2929 30.4903 18.2687 30.3766 18.2215C30.2628 18.1744 30.1594 18.1052 30.0724 18.0181Z" fill="#FCDD03"/>
</svg>
