<svg width="60" height="60" viewBox="0 0 60 60" fill="none" xmlns="http://www.w3.org/2000/svg">
<path d="M57.5654 40.7827C58.7313 39.3892 59.3457 37.6165 59.2922 35.8004C59.1994 34.2296 58.6274 32.7249 57.6534 31.489C58.236 30.2028 58.3966 28.7653 58.1121 27.3822C57.8276 25.9992 57.1126 24.7418 56.0696 23.79C54.0679 21.9643 50.6803 21.1504 45.995 21.3813C43.9173 21.4797 41.8506 21.7408 39.8138 22.1622C39.1869 22.2832 38.527 22.4152 37.8451 22.5692C37.8451 21.7663 37.9331 19.7756 39.4179 15.2772C41.1666 9.93187 41.0676 5.84042 39.0879 3.11279C38.3383 2.1381 37.3734 1.34997 36.2687 0.810015C35.164 0.270058 33.9493 -0.00709963 32.7198 0.000204745C32.2589 -0.00504452 31.8024 0.0907003 31.3825 0.280711C30.9626 0.470722 30.5894 0.750388 30.2891 1.10006C28.9033 2.72784 29.0682 5.70844 29.2442 7.08326C27.5834 11.4827 22.9421 22.4152 19.0156 25.4398C18.9422 25.4896 18.8757 25.5488 18.8176 25.6158C17.8148 26.7073 16.9975 27.9557 16.3979 29.3113C15.636 28.8947 14.7806 28.6789 13.9123 28.6844H6.2243C4.84063 28.6844 3.51348 29.2333 2.53405 30.2106C1.55461 31.188 1.00291 32.514 1 33.8977L1 54.2889C1.00291 55.6726 1.55461 56.9986 2.53405 57.976C3.51348 58.9533 4.84063 59.5022 6.2243 59.5022H13.9233C15.0027 59.5037 16.0559 59.1693 16.9369 58.5454L19.8845 58.8973C25.4342 59.5739 31.0227 59.8825 36.6132 59.8212C38.098 59.9312 39.5058 59.9972 40.8147 59.9972C42.7708 60.025 44.7245 59.848 46.6439 59.4692C50.4824 58.6553 53.111 57.0166 54.4308 54.6189C55.2361 53.1542 55.5375 51.4654 55.2887 49.8125C56.2334 49.0203 56.982 48.0204 57.4762 46.8909C57.9704 45.7613 58.1966 44.5329 58.1373 43.3014C58.0761 42.4376 57.8832 41.5883 57.5654 40.7827ZM6.2243 56.0927C5.98361 56.0941 5.74502 56.048 5.52224 55.9569C5.29945 55.8658 5.09688 55.7315 4.92618 55.5618C4.75548 55.3922 4.62001 55.1904 4.52757 54.9682C4.43513 54.7459 4.38754 54.5076 4.38755 54.2669V33.8867C4.38755 33.3995 4.58106 32.9323 4.92552 32.5879C5.26998 32.2434 5.73716 32.0499 6.2243 32.0499H13.9233C14.1645 32.0499 14.4033 32.0974 14.6262 32.1897C14.849 32.282 15.0515 32.4173 15.222 32.5879C15.3926 32.7584 15.5279 32.9609 15.6202 33.1838C15.7125 33.4066 15.76 33.6455 15.76 33.8867V54.2669C15.7587 54.5119 15.7083 54.7541 15.6119 54.9794C15.5156 55.2046 15.3751 55.4083 15.1988 55.5784C15.0225 55.7485 14.814 55.8817 14.5855 55.97C14.357 56.0583 14.1131 56.1 13.8683 56.0927H6.2243ZM54.3539 39.3199C54.0943 39.5876 53.9317 39.9343 53.8919 40.305C53.852 40.6756 53.9372 41.049 54.1339 41.3657C54.4661 42.0156 54.6607 42.7269 54.7058 43.4554C54.7304 44.3301 54.5262 45.1961 54.1134 45.9678C53.7006 46.7394 53.0935 47.3898 52.3521 47.8548C52.0612 48.0731 51.8476 48.3787 51.7428 48.7269C51.6379 49.0752 51.6472 49.4479 51.7692 49.7905C52.0726 50.8724 51.9506 52.0293 51.4282 53.0241C50.5924 54.5309 48.7226 55.6088 45.929 56.2137C42.9094 56.724 39.834 56.8165 36.7892 56.4886H36.6132C31.1626 56.5505 25.7139 56.2529 20.3024 55.5978L19.0376 55.4438C19.1079 55.0813 19.1447 54.7131 19.1476 54.3439V33.8867C19.1459 33.3569 19.0643 32.8303 18.9056 32.3249C19.3389 30.73 20.1371 29.2577 21.2373 28.0245C26.8135 23.559 32.3238 8.49107 32.5658 7.84215C32.6635 7.57111 32.69 7.2795 32.6428 6.99527C32.4039 5.78985 32.4605 4.54453 32.8077 3.36575C33.4861 3.36211 34.1564 3.51269 34.768 3.80612C35.3797 4.09955 35.9166 4.52814 36.3383 5.05953C37.6251 6.83029 37.5701 9.98687 36.1843 14.1773C34.0836 20.5674 33.9076 23.922 35.5794 25.4068C35.9482 25.7258 36.3964 25.9391 36.8766 26.0243C37.3567 26.1095 37.8509 26.0634 38.307 25.8907C39.0769 25.7148 39.8028 25.5718 40.5067 25.4508H40.6717C44.5212 24.6149 51.4172 24.098 53.8149 26.2757C55.8497 28.1344 54.4088 30.5981 54.2439 30.8621C54.0157 31.2016 53.9199 31.6129 53.9746 32.0183C54.0293 32.4237 54.2308 32.7949 54.5408 33.0618C55.3343 33.8436 55.8285 34.8788 55.9376 35.9874C55.9111 36.6208 55.7571 37.2423 55.485 37.8149C55.2129 38.3875 54.8282 38.8993 54.3539 39.3199Z" fill="#FCDD03"/>
</svg>
