<svg width="60" height="60" viewBox="0 0 60 60" fill="none" xmlns="http://www.w3.org/2000/svg">
<path d="M58.5584 19.0355C57.6392 18.1192 56.3943 17.6047 55.0964 17.6047C53.7986 17.6047 52.5537 18.1192 51.6345 19.0355L45.4822 25.1878V9.95939C45.4827 9.31661 45.3565 8.68003 45.1109 8.08602C44.8653 7.49201 44.505 6.95222 44.0508 6.49747L38.9746 1.42132C38.5224 0.969942 37.9858 0.612088 37.3952 0.368211C36.8047 0.124334 36.1719 -0.000785383 35.533 3.70927e-06H4.8934C3.59559 3.70927e-06 2.35093 0.515557 1.43324 1.43325C0.515553 2.35094 0 3.59559 0 4.8934L0 55.1066C0 56.4044 0.515553 57.6491 1.43324 58.5668C2.35093 59.4844 3.59559 60 4.8934 60H40.6091C41.9069 60 43.1516 59.4844 44.0693 58.5668C44.987 57.6491 45.5025 56.4044 45.5025 55.1066V39.0457L58.5584 25.9594C59.4747 25.0402 59.9892 23.7953 59.9892 22.4975C59.9892 21.1996 59.4747 19.9547 58.5584 19.0355ZM34.7716 2.6599H35.2284V3.11675L35.3096 2.64975C35.6403 2.62701 35.972 2.67401 36.2833 2.78769C36.5946 2.90137 36.8786 3.0792 37.1168 3.30965L42.1929 8.38579C42.4142 8.62074 42.5844 8.89903 42.6927 9.20307C42.8011 9.50712 42.8452 9.83033 42.8223 10.1523V10.6091L42.3655 10.6904H34.7716V2.6599ZM42.8223 55.1066C42.8197 55.6981 42.5835 56.2647 42.1652 56.683C41.7469 57.1013 41.1804 57.3374 40.5888 57.3401H4.8934C4.3001 57.3401 3.73095 57.1051 3.31048 56.6865C2.89 56.268 2.65243 55.6999 2.64975 55.1066V4.8934C2.65243 4.30011 2.89 3.73203 3.31048 3.31346C3.73095 2.89489 4.3001 2.6599 4.8934 2.6599H32.1218V12.0305C32.1205 12.2046 32.1536 12.3773 32.2194 12.5386C32.2851 12.6999 32.3821 12.8466 32.5048 12.9703C32.6275 13.0939 32.7734 13.192 32.9342 13.259C33.095 13.3259 33.2674 13.3604 33.4416 13.3604H42.8223V27.8477L34.9036 35.7767C34.7595 35.924 34.6487 36.1006 34.5787 36.2944L32.0609 43.868C31.9853 44.1004 31.9746 44.349 32.0301 44.587C32.0856 44.825 32.205 45.0433 32.3756 45.2183C32.549 45.3974 32.7716 45.5211 33.0152 45.5736C33.2503 45.6445 33.501 45.6445 33.736 45.5736L41.3096 43.0457C41.5046 42.983 41.682 42.8752 41.8274 42.731L42.8426 41.7157L42.8223 55.1066ZM38.3655 36.0711L41.533 39.2386L40.0711 40.6091L35.4213 42.1624L37.0761 37.33L38.3655 36.0711ZM43.4416 37.3604L40.2741 34.1929L49.5025 24.9543L52.6701 28.1218L43.4416 37.3604ZM56.6802 24.0812L54.5178 26.2437L51.3401 23.0761L53.5127 20.9137C53.9404 20.5336 54.4972 20.3313 55.0691 20.3481C55.6411 20.3649 56.185 20.5997 56.5896 21.0043C56.9942 21.4089 57.229 21.9528 57.2458 22.5248C57.2626 23.0967 57.0603 23.6535 56.6802 24.0812Z" fill="#FCDD03"/>
<path d="M33.4417 50.2031H22.7412C22.3884 50.2031 22.0502 50.3432 21.8007 50.5926C21.5513 50.8421 21.4112 51.1803 21.4112 51.5331C21.4112 51.8858 21.5513 52.2241 21.8007 52.4735C22.0502 52.7229 22.3884 52.863 22.7412 52.863H33.4417C33.7944 52.863 34.1327 52.7229 34.3821 52.4735C34.6315 52.2241 34.7716 51.8858 34.7716 51.5331C34.7716 51.1803 34.6315 50.8421 34.3821 50.5926C34.1327 50.3432 33.7944 50.2031 33.4417 50.2031ZM26.3351 39.259H8.4569C8.10418 39.259 7.7659 39.3991 7.51649 39.6485C7.26707 39.8979 7.12695 40.2362 7.12695 40.5889C7.12695 40.9416 7.26707 41.2799 7.51649 41.5293C7.7659 41.7787 8.10418 41.9189 8.4569 41.9189H26.3046C26.4793 41.9189 26.6522 41.8845 26.8136 41.8176C26.9749 41.7508 27.1215 41.6528 27.245 41.5293C27.3685 41.4058 27.4665 41.2592 27.5333 41.0979C27.6002 40.9365 27.6346 40.7636 27.6346 40.5889C27.6346 40.4143 27.6002 40.2413 27.5333 40.08C27.4665 39.9186 27.3685 39.772 27.245 39.6485C27.1215 39.525 26.9749 39.427 26.8136 39.3602C26.6522 39.2934 26.4793 39.259 26.3046 39.259H26.3351ZM26.3351 32.1524H8.4569C8.10418 32.1524 7.7659 32.2925 7.51649 32.5419C7.26707 32.7913 7.12695 33.1296 7.12695 33.4823C7.12695 33.835 7.26707 34.1733 7.51649 34.4227C7.7659 34.6721 8.10418 34.8123 8.4569 34.8123H26.3046C26.6573 34.8123 26.9956 34.6721 27.245 34.4227C27.4944 34.1733 27.6346 33.835 27.6346 33.4823C27.6346 33.1296 27.4944 32.7913 27.245 32.5419C26.9956 32.2925 26.6573 32.1524 26.3046 32.1524H26.3351ZM26.3351 25.0458H8.4569C8.12554 25.0748 7.81709 25.2269 7.59239 25.4722C7.36768 25.7174 7.24304 26.038 7.24304 26.3706C7.24304 26.7033 7.36768 27.0238 7.59239 27.2691C7.81709 27.5143 8.12554 27.6665 8.4569 27.6955H26.3046C26.4883 27.7116 26.6734 27.6893 26.8481 27.63C27.0227 27.5708 27.1832 27.4758 27.3191 27.3512C27.4551 27.2266 27.5637 27.0751 27.638 26.9063C27.7123 26.7375 27.7507 26.5551 27.7507 26.3706C27.7507 26.1862 27.7123 26.0038 27.638 25.835C27.5637 25.6661 27.4551 25.5146 27.3191 25.39C27.1832 25.2654 27.0227 25.1705 26.8481 25.1112C26.6734 25.052 26.4883 25.0297 26.3046 25.0458H26.3351ZM33.4417 17.9392H8.4569C8.12554 17.9682 7.81709 18.1203 7.59239 18.3656C7.36768 18.6108 7.24304 18.9314 7.24304 19.264C7.24304 19.5967 7.36768 19.9172 7.59239 20.1625C7.81709 20.4077 8.12554 20.5599 8.4569 20.5889H33.4417C33.6254 20.605 33.8105 20.5827 33.9851 20.5234C34.1598 20.4642 34.3202 20.3692 34.4562 20.2446C34.5922 20.12 34.7008 19.9685 34.7751 19.7997C34.8493 19.6309 34.8877 19.4485 34.8877 19.264C34.8877 19.0796 34.8493 18.8972 34.7751 18.7284C34.7008 18.5595 34.5922 18.408 34.4562 18.2834C34.3202 18.1588 34.1598 18.0639 33.9851 18.0046C33.8105 17.9454 33.6254 17.9231 33.4417 17.9392Z" fill="#FCDD03"/>
</svg>
