<svg width="114" height="40" viewBox="0 0 114 40" fill="none" xmlns="http://www.w3.org/2000/svg">
<path d="M0.0715468 0H7.89746C12.0498 0 15.35 1.92556 15.35 6.48428C15.35 11.043 12.0498 12.9686 7.89746 12.9686H4.71428V17.8127H0.0715468V0ZM4.71428 4.03656V8.93069H7.89746C9.54304 8.93069 10.5876 8.24806 10.5876 6.48428C10.5876 4.72051 9.54694 4.03656 7.89746 4.03656H4.71428Z" fill="white"/>
<path d="M14.8622 17.8127L22.0728 0H26.9627L34.1746 17.8127H29.1742L27.9683 14.6824H21.066L19.8614 17.8127H14.8622ZM22.5281 10.8694H26.4957L24.5184 5.71353L22.5281 10.8694Z" fill="white"/>
<path d="M40.783 13.7761H49.271V17.8127H36.1389V0H40.783V13.7761Z" fill="white"/>
<path d="M51.9729 0H56.6169V17.8127H51.9729V0Z" fill="white"/>
<path d="M59.0742 0H75.3192V4.03656H69.5161V17.8127H64.8721V4.03656H59.0742V0Z" fill="white"/>
<path d="M77.6478 0H85.3514C89.4426 0 92.9314 1.41655 92.9314 6.11075C92.9314 8.52164 91.641 10.1486 89.5037 11.0548L93.2137 17.8127H88.1274L84.848 11.8256H82.2918V17.8127H77.6478V0ZM82.2918 8.18624H85.3514C86.8383 8.18624 88.1651 7.88768 88.1651 6.11075C88.1651 4.33382 86.8383 4.03656 85.3514 4.03656H82.2918V8.18624Z" fill="white"/>
<path d="M94.6863 17.8127L101.898 0H106.788L114 17.8127H109L107.795 14.6824H100.891L99.6868 17.8127H94.6863ZM102.354 10.8694H106.321L104.344 5.71353L102.354 10.8694Z" fill="white"/>
<path d="M4.69477 35.945L13.1841 35.9121L13.1997 39.95L0.06114 40L0 22.1873L4.64404 22.1702L4.69477 35.945Z" fill="white"/>
<path d="M14.6723 39.9448L21.8179 22.1044L26.7078 22.086L33.9847 39.8711L28.9842 39.8895L27.7692 36.7644L20.8643 36.7907L19.6728 39.925L14.6723 39.9448ZM22.3122 32.9738L26.2811 32.9594L24.2843 27.8114L22.3122 32.9738Z" fill="white"/>
<path d="M26.7078 22.086L33.9847 39.8711H114V22.086H26.7078Z" fill="url(#paint0_linear_155_808)"/>
<defs>
<linearGradient id="paint0_linear_155_808" x1="114" y1="30.9786" x2="26.7078" y2="30.9786" gradientUnits="userSpaceOnUse">
<stop stop-color="#F47F02"/>
<stop offset="0.24" stop-color="#F69F09"/>
<stop offset="0.57" stop-color="#F7C712"/>
<stop offset="0.84" stop-color="#F9DF18"/>
<stop offset="1" stop-color="#F9E81A"/>
</linearGradient>
</defs>
</svg>
