<svg width="60" height="60" viewBox="0 0 60 60" fill="none" xmlns="http://www.w3.org/2000/svg">
<g clip-path="url(#clip0_458_298)">
<path d="M45.4 6.64997L30.4 0.0839731C30.2738 0.0289098 30.1377 0.000488281 30 0.000488281C29.8623 0.000488281 29.7262 0.0289098 29.6 0.0839731L14.6 6.64997C14.4217 6.72777 14.27 6.85586 14.1635 7.01855C14.0569 7.18124 14.0001 7.37148 14 7.56597V23.266C14.005 26.794 15.7 30.106 18.56 32.174L28.927 39.651C29.2392 39.8769 29.6147 39.9986 30 39.9986C30.3853 39.9986 30.7608 39.8769 31.073 39.651L41.44 32.175C42.8495 31.1557 43.9975 29.8171 44.7901 28.2688C45.5827 26.7204 45.9973 25.0064 46 23.267V7.56597C45.9999 7.37148 45.9431 7.18124 45.8365 7.01855C45.7299 6.85586 45.5783 6.72777 45.4 6.64997ZM44 23.267C43.9977 24.6897 43.6586 26.0916 43.0102 27.358C42.3619 28.6245 41.4229 29.7193 40.27 30.553L30 37.96L19.73 30.553C18.5771 29.7193 17.6381 28.6245 16.9898 27.358C16.3414 26.0916 16.0023 24.6897 16 23.267V8.21997L30 2.09197L44 8.21997V23.267Z" fill="#FCDD03"/>
<path d="M29.6001 4.44994L18.6001 9.26594C18.4219 9.34374 18.2702 9.47182 18.1636 9.63452C18.057 9.79721 18.0002 9.98745 18.0001 10.1819V23.2669C18.0016 24.373 18.2653 25.463 18.7693 26.4475C19.2734 27.432 20.0036 28.2831 20.9001 28.9309L29.4151 35.0729C29.5854 35.1958 29.7901 35.2619 30.0001 35.2619C30.2101 35.2619 30.4148 35.1958 30.5851 35.0729L39.1001 28.9309C39.9966 28.2831 40.7268 27.432 41.2309 26.4475C41.735 25.463 41.9986 24.373 42.0001 23.2669V10.1819C42 9.98745 41.9432 9.79721 41.8366 9.63452C41.7301 9.47182 41.5784 9.34374 41.4001 9.26594L30.4001 4.44994C30.274 4.39488 30.1378 4.36646 30.0001 4.36646C29.8625 4.36646 29.7263 4.39488 29.6001 4.44994ZM40.0001 10.8349V23.2669C39.9986 24.0562 39.8103 24.834 39.4505 25.5365C39.0907 26.239 38.5697 26.8464 37.9301 27.3089L30.0001 33.0289L22.0701 27.3089C21.4305 26.8464 20.9095 26.239 20.5498 25.5365C20.19 24.834 20.0016 24.0562 20.0001 23.2669V10.8349L30.0001 6.45794L40.0001 10.8349ZM8.28512 33.1999L6.12212 28.1459C5.95305 27.7629 5.71019 27.417 5.40741 27.1278C5.10464 26.8387 4.74788 26.612 4.3575 26.4608C3.96712 26.3095 3.55077 26.2366 3.13222 26.2462C2.71368 26.2559 2.30112 26.3479 1.91812 26.5169C1.53512 26.686 1.18918 26.9289 0.900032 27.2317C0.610889 27.5344 0.384213 27.8912 0.232946 28.2816C0.0816792 28.6719 0.00878437 29.0883 0.0184232 29.5068C0.0280621 29.9254 0.120046 30.3379 0.289123 30.7209L4.20812 39.3419C4.73684 40.509 5.47235 41.5708 6.37912 42.4759L12.5421 48.6399C12.1951 49.0079 12.0021 49.4939 12.0001 49.9999V57.9999C12.0001 58.5304 12.2108 59.0391 12.5859 59.4142C12.961 59.7892 13.4697 59.9999 14.0001 59.9999H25.0001C25.5306 59.9999 26.0393 59.7892 26.4143 59.4142C26.7894 59.0391 27.0001 58.5304 27.0001 57.9999V49.9999C27.0001 49.4695 26.7894 48.9608 26.4143 48.5857C26.0393 48.2107 25.5306 47.9999 25.0001 47.9999V46.1389C25.0308 43.7706 24.2581 41.4618 22.8081 39.5889C21.958 38.4709 20.7995 37.6258 19.4751 37.1579C17.369 36.273 15.432 35.03 13.7501 33.4839C12.9897 32.8576 12.0483 32.492 11.0644 32.4409C10.0806 32.3898 9.10638 32.6558 8.28512 33.1999ZM25.0001 57.9999H14.0001V49.9999H25.0001V57.9999ZM21.2471 40.8379C22.4127 42.3566 23.0305 44.2248 23.0001 46.1389V47.9999H14.7311L7.79312 41.0619C7.05626 40.3261 6.45833 39.4633 6.02812 38.5149L2.10912 29.8939C2.03952 29.7502 1.99958 29.594 1.99167 29.4345C1.98377 29.2751 2.00806 29.1156 2.0631 28.9658C2.11815 28.8159 2.20281 28.6786 2.31205 28.5622C2.42129 28.4457 2.55286 28.3525 2.69892 28.288C2.84498 28.2235 3.00253 28.1891 3.16218 28.1868C3.32183 28.1845 3.4803 28.2144 3.62815 28.2747C3.77599 28.3349 3.91018 28.4244 4.02271 28.5377C4.13524 28.6509 4.22381 28.7857 4.28312 28.9339L6.52012 34.1509C7.11415 35.5428 7.97037 36.8075 9.04212 37.8759L13.6101 42.4449C13.7024 42.5404 13.8127 42.6166 13.9347 42.669C14.0567 42.7215 14.1879 42.749 14.3207 42.7502C14.4535 42.7513 14.5852 42.726 14.7081 42.6758C14.831 42.6255 14.9426 42.5512 15.0365 42.4573C15.1304 42.3634 15.2047 42.2518 15.2549 42.1289C15.3052 42.006 15.3305 41.8743 15.3294 41.7415C15.3282 41.6088 15.3006 41.4775 15.2482 41.3555C15.1958 41.2335 15.1196 41.1232 15.0241 41.0309L10.4561 36.4619C9.99679 36.0037 9.58379 35.5013 9.22312 34.9619C9.68946 34.6031 10.2637 34.413 10.8521 34.4229C11.4404 34.4327 12.008 34.6417 12.4621 35.0159C14.3315 36.7315 16.492 38.0996 18.8421 39.0559C19.7996 39.4041 20.6352 40.0233 21.2471 40.8379Z" fill="#FCDD03"/>
<path d="M22 52.9999H21C20.7348 52.9999 20.4804 53.1053 20.2929 53.2928C20.1054 53.4803 20 53.7347 20 53.9999C20 54.2651 20.1054 54.5195 20.2929 54.707C20.4804 54.8946 20.7348 54.9999 21 54.9999H22C22.2652 54.9999 22.5196 54.8946 22.7071 54.707C22.8946 54.5195 23 54.2651 23 53.9999C23 53.7347 22.8946 53.4803 22.7071 53.2928C22.5196 53.1053 22.2652 52.9999 22 52.9999ZM55.792 39.3419L59.711 30.7209C59.888 30.3368 59.9869 29.9213 60.0018 29.4985C60.0166 29.0758 59.9472 28.6544 59.7976 28.2588C59.648 27.8631 59.4211 27.5013 59.1303 27.1942C58.8394 26.8871 58.4903 26.641 58.1034 26.4701C57.7165 26.2993 57.2994 26.2071 56.8765 26.1991C56.4536 26.191 56.0333 26.2672 55.6402 26.4231C55.247 26.5791 54.8888 26.8118 54.5864 27.1075C54.2841 27.4033 54.0436 27.7563 53.879 28.1459L51.721 33.1809C50.8968 32.6394 49.9208 32.3764 48.9361 32.4304C47.9515 32.4844 47.01 32.8526 46.25 33.4809C44.5681 35.027 42.6312 36.27 40.525 37.1549C39.2007 37.6228 38.0421 38.4678 37.192 39.5859C35.7414 41.4596 34.9687 43.7696 35 46.1389V47.9999C34.4696 47.9999 33.9609 48.2106 33.5858 48.5857C33.2107 48.9608 33 49.4695 33 49.9999V57.9999C33 58.5303 33.2107 59.0391 33.5858 59.4141C33.9609 59.7892 34.4696 59.9999 35 59.9999H46C46.5304 59.9999 47.0391 59.7892 47.4142 59.4141C47.7893 59.0391 48 58.5303 48 57.9999V49.9999C47.9989 49.4941 47.8051 49.0078 47.458 48.6399L53.621 42.4759C54.5278 41.5707 55.2633 40.509 55.792 39.3419ZM46 57.9999H35V49.9999H46V57.9999ZM45.269 47.9999H37V46.1389C36.9698 44.2251 37.5876 42.3573 38.753 40.8389C39.3635 40.0248 40.1973 39.4054 41.153 39.0559C43.5036 38.0999 45.6645 36.7317 47.534 35.0159C47.9876 34.6389 48.5558 34.4273 49.1455 34.4159C49.7351 34.4045 50.3112 34.5938 50.779 34.9529C50.4173 35.4962 50.0022 36.0021 49.54 36.4629L44.972 41.0319C44.7898 41.2205 44.689 41.4731 44.6913 41.7353C44.6936 41.9975 44.7988 42.2483 44.9842 42.4337C45.1696 42.6191 45.4204 42.7243 45.6826 42.7266C45.9448 42.7289 46.1974 42.6281 46.386 42.4459L50.954 37.8769C52.0258 36.8085 52.882 35.5438 53.476 34.1519L55.713 28.9339C55.7977 28.7354 55.9348 28.5638 56.1098 28.4374C56.2847 28.3111 56.4908 28.2348 56.7058 28.2168C56.9208 28.1988 57.1367 28.2398 57.3302 28.3353C57.5237 28.4308 57.6875 28.5773 57.804 28.7589C58.024 29.0989 58.054 29.5269 57.887 29.8949L53.968 38.5159C53.5378 39.4642 52.9399 40.3271 52.203 41.0629L45.269 47.9999Z" fill="#FCDD03"/>
<path d="M39 53H38C37.7348 53 37.4804 53.1054 37.2929 53.2929C37.1054 53.4804 37 53.7348 37 54C37 54.2652 37.1054 54.5196 37.2929 54.7071C37.4804 54.8947 37.7348 55 38 55H39C39.2652 55 39.5196 54.8947 39.7071 54.7071C39.8946 54.5196 40 54.2652 40 54C40 53.7348 39.8946 53.4804 39.7071 53.2929C39.5196 53.1054 39.2652 53 39 53ZM24.6 21.2C24.3878 21.0409 24.1211 20.9725 23.8586 21.0101C23.596 21.0476 23.3591 21.1878 23.2 21.4C23.0409 21.6122 22.9725 21.8789 23.0101 22.1414C23.0476 22.404 23.1878 22.6409 23.4 22.8L27.4 25.8C27.5088 25.8816 27.6331 25.9402 27.7652 25.9721C27.8974 26.004 28.0347 26.0087 28.1687 25.9858C28.3028 25.9628 28.4307 25.9128 28.5448 25.8387C28.6588 25.7647 28.7565 25.6681 28.832 25.555L36.832 13.555C36.9792 13.3343 37.0327 13.0643 36.9808 12.8041C36.9288 12.544 36.7757 12.3152 36.555 12.168C36.3343 12.0208 36.0642 11.9673 35.8041 12.0192C35.544 12.0712 35.3152 12.2243 35.168 12.445L27.754 23.566L24.6 21.2Z" fill="#FCDD03"/>
</g>
<defs>
<clipPath id="clip0_458_298">
<rect width="60" height="60" fill="white"/>
</clipPath>
</defs>
</svg>
