<svg width="25" height="25" viewBox="0 0 25 25" fill="none" xmlns="http://www.w3.org/2000/svg">
<path d="M8.92658 3.92134C9.29725 3.92134 9.63878 4.12237 9.81873 4.44647L11.0669 6.69485C11.2303 6.98923 11.238 7.3453 11.0874 7.64648L9.88495 10.0514C9.88495 10.0514 10.2334 11.843 11.6918 13.3013C13.1502 14.7597 14.9357 15.1021 14.9357 15.1021L17.3403 13.8999C17.6416 13.7492 17.998 13.757 18.2925 13.9207L20.5472 15.1743C20.871 15.3543 21.0718 15.6957 21.0718 16.0661V18.6546C21.0718 19.9729 19.8473 20.9249 18.5984 20.5035C16.0331 19.6379 12.0511 17.9898 9.5272 15.4659C7.00332 12.942 5.35522 8.96005 4.48964 6.3948C4.0682 5.14576 5.02029 3.92134 6.33847 3.92134H8.92658Z" stroke="#FCDD03" stroke-width="1.95918" stroke-linejoin="round"/>
</svg>
