<svg width="54" height="60" viewBox="0 0 54 60" fill="none" xmlns="http://www.w3.org/2000/svg">
<path d="M1.6875 59.0625H9.18844C9.31619 59.0626 9.4426 59.0366 9.55993 58.986C9.67726 58.9355 9.78302 58.8615 9.87072 58.7686C9.95843 58.6758 10.0262 58.5659 10.07 58.4459C10.1137 58.3259 10.1324 58.1982 10.125 58.0706L10.0725 57.1875H12.9384C13.0672 57.1879 13.1947 57.1616 13.3129 57.1103C13.4311 57.0591 13.5374 56.984 13.6252 56.8897C13.7129 56.7954 13.7802 56.684 13.8229 56.5625C13.8656 56.4409 13.8827 56.3119 13.8731 56.1834L13.8375 55.6884L14.8538 55.3491C18.24 54.2203 21.915 54.1266 25.4109 54.825C27.0234 55.1484 28.6781 55.3125 30.3281 55.3125C35.6632 55.3119 40.8194 53.3888 44.8519 49.8956L52.0378 43.6659C52.4187 43.3366 52.7243 42.9291 52.9336 42.4711C53.1429 42.0131 53.2512 41.5154 53.2509 41.0119C53.2509 39.1519 51.7931 37.6406 49.9631 37.5225C52.1219 33.8159 53.2566 29.602 53.2509 25.3125C53.2509 11.8716 42.3169 0.9375 28.8759 0.9375C15.435 0.9375 4.50094 11.8716 4.50094 25.3125C4.5073 31.6036 6.94299 37.6491 11.2997 42.1875H9.19031L9.1875 42.1322C9.17295 41.8936 9.06797 41.6695 8.89396 41.5056C8.71995 41.3417 8.48999 41.2503 8.25094 41.25H1.68844C1.4398 41.25 1.20134 41.3488 1.02553 41.5246C0.84971 41.7004 0.750937 41.9389 0.750937 42.1875L0.75 58.125C0.750495 58.3735 0.849427 58.6117 1.02513 58.7874C1.20084 58.9631 1.43901 59.062 1.6875 59.0625ZM51.3759 41.0119C51.3759 41.4872 51.1697 41.9372 50.8097 42.2484L43.6228 48.4781C39.932 51.6765 35.2119 53.4372 30.3281 53.4375C28.8019 53.4375 27.2709 53.2856 25.7784 52.9875C21.9647 52.2234 17.955 52.3387 14.2603 53.5706L13.6997 53.7572L13.0284 44.3606L14.4956 42.8934C15.3122 42.0727 16.2833 41.422 17.353 40.979C18.4226 40.5359 19.5694 40.3094 20.7272 40.3125C22.2816 40.3125 23.8022 40.605 25.2469 41.1834C26.9052 41.8482 28.6756 42.189 30.4622 42.1875H34.5009C36.2437 42.1875 37.6987 43.3866 38.1178 45H28.8759V46.875H39.1884C39.4014 46.8751 39.6081 46.8027 39.7744 46.6697L48.4425 39.7341C48.7333 39.502 49.0942 39.3754 49.4663 39.375H49.7391C50.6419 39.375 51.3759 40.1091 51.3759 41.0119ZM10.1737 24.375C10.3859 20.0604 12.0891 15.9533 14.9925 12.7547L16.9425 14.7047L18.2681 13.3791L16.3181 11.4291C19.5164 8.52515 23.6237 6.8219 27.9384 6.61031V9.375H29.8134V6.61031C34.1279 6.82188 38.2349 8.52515 41.4328 11.4291L39.4819 13.38L40.8075 14.7056L42.7584 12.7547C45.6628 15.9527 47.3664 20.0601 47.5781 24.375H44.8134V26.25H47.5941C47.3863 30.571 45.6855 34.686 42.7819 37.8928L40.8084 35.9194L39.4828 37.245L41.4534 39.2156C40.4296 40.1391 39.3072 40.9471 38.1066 41.625C37.0972 40.7764 35.8205 40.3116 34.5019 40.3125H30.4631C28.9088 40.3125 27.3881 40.02 25.9434 39.4416C24.8042 38.9895 23.6106 38.6888 22.3931 38.5472L28.3781 28.0744C28.5394 28.1034 28.7053 28.125 28.8759 28.125C30.4266 28.125 31.6884 26.8631 31.6884 25.3125C31.6866 24.7327 31.5054 24.1678 31.1697 23.6951C30.834 23.2224 30.3602 22.8652 29.8134 22.6725V14.0616H27.9384V22.6725C27.3917 22.8652 26.9179 23.2224 26.5822 23.6951C26.2465 24.1678 26.0653 24.7327 26.0634 25.3125C26.0634 26.0119 26.3297 26.6447 26.7534 27.1369L20.5622 37.9725L21.435 38.4712C21.1987 38.4591 20.9644 38.4375 20.7272 38.4375C19.2262 38.4375 17.7759 38.7525 16.4409 39.3375L16.3003 39.2137L18.2691 37.245L16.9434 35.9194L14.9756 37.8872C12.0695 34.6832 10.3648 30.5704 10.1522 26.25H12.9384V24.375H10.1737ZM28.8759 24.375C29.1246 24.375 29.363 24.4738 29.5389 24.6496C29.7147 24.8254 29.8134 25.0639 29.8134 25.3125C29.8134 25.5611 29.7147 25.7996 29.5389 25.9754C29.363 26.1512 29.1246 26.25 28.8759 26.25C28.6273 26.25 28.3888 26.1512 28.213 25.9754C28.0372 25.7996 27.9384 25.5611 27.9384 25.3125C27.9384 25.0639 28.0372 24.8254 28.213 24.6496C28.3888 24.4738 28.6273 24.375 28.8759 24.375ZM28.8759 2.8125C41.2819 2.8125 51.3759 12.9066 51.3759 25.3125C51.3759 29.9925 49.9509 34.4719 47.2612 38.2772L39.8503 44.2069C39.7216 43.8134 39.5496 43.4355 39.3375 43.08C42.4357 41.2639 45.0042 38.6681 46.7873 35.5508C48.5704 32.4336 49.506 28.9037 49.5009 25.3125C49.5009 13.9397 40.2487 4.6875 28.8759 4.6875C17.5031 4.6875 8.25094 13.9397 8.25094 25.3125C8.24819 28.1184 8.81958 30.8952 9.92994 33.4721C11.0403 36.049 12.6662 38.3714 14.7075 40.2966C14.1928 40.6491 13.7062 41.0484 13.2516 41.4937C11.0792 39.3953 9.3511 36.8814 8.16993 34.1016C6.98875 31.3218 6.37866 28.3328 6.37594 25.3125C6.37594 12.9066 16.47 2.8125 28.8759 2.8125ZM11.1281 44.0625L11.9306 55.3125H9.96094L9.3 44.0625H11.1281ZM2.62594 43.125H7.36687L8.19469 57.1875H2.625L2.62594 43.125Z" fill="#FCDD03"/>
</svg>
