<svg width="60" height="61" viewBox="0 0 60 61" fill="none" xmlns="http://www.w3.org/2000/svg">
<path d="M59.9139 4.11163C59.8672 3.06416 59.4373 2.07038 58.7058 1.31928C57.9619 0.565581 56.9615 0.119683 55.9038 0.0703353C51.0713 -0.193669 41.6093 0.070335 32.5535 4.73102C27.4356 7.54801 22.9012 11.3146 19.1931 15.8293L18.9291 16.1543L9.79208 16.8549C9.14192 16.9029 8.51157 17.1001 7.94992 17.4312C7.38828 17.7622 6.91045 18.2182 6.5535 18.7639L0.462131 27.9735C0.202589 28.3676 0.0467218 28.8208 0.00898102 29.2911C-0.0287597 29.7615 0.0528478 30.2337 0.246237 30.6641C0.439626 31.0945 0.738536 31.4691 1.11525 31.7531C1.49197 32.0372 1.93429 32.2215 2.40122 32.289L10.3809 33.5075L10.2185 34.401C10.1044 35.0712 10.1538 35.759 10.3623 36.406C10.5709 37.053 10.9325 37.6401 11.4164 38.1174L21.8835 48.6065C22.365 49.0843 22.9525 49.4417 23.5981 49.6499C24.2437 49.8581 24.9293 49.9111 25.5992 49.8046L26.4926 49.6523L27.7312 57.6232C27.8007 58.0893 27.9871 58.5301 28.2729 58.9047C28.5587 59.2794 28.9346 59.5755 29.3657 59.7657C29.7959 59.9535 30.2661 60.0315 30.734 59.9925C31.2018 59.9535 31.6526 59.7988 32.0459 59.5423L41.254 53.4499C41.7995 53.0929 42.2555 52.615 42.5865 52.0533C42.9175 51.4915 43.1146 50.8611 43.1626 50.2108L43.8631 41.0722L44.117 40.8691C48.6627 37.1372 52.4532 32.5706 55.2845 27.4151C59.9139 18.4085 60.2083 8.94493 59.9139 4.11163ZM11.0814 30.512L10.9697 30.8979L2.54335 29.588L8.75655 20.1854C8.8933 19.9823 9.07366 19.8124 9.28447 19.6879C9.49722 19.5595 9.73718 19.483 9.98497 19.4645L16.7362 18.9365L16.2185 19.7285C13.9686 23.0517 12.2461 26.7029 11.1119 30.5527L11.0814 30.512ZM25.1626 47.1849C25.0783 47.1949 24.9931 47.1949 24.9088 47.1849C24.6953 47.1868 24.4836 47.1455 24.2865 47.0635C24.0893 46.9815 23.9108 46.8605 23.7616 46.7077L13.2946 36.2592C13.1099 36.0807 12.9717 35.8596 12.8921 35.6154C12.8124 35.3711 12.7938 35.1111 12.8378 34.8579C13.1373 33.0157 13.6028 31.2043 14.2286 29.4459L14.4723 28.7655L31.2134 45.5298L30.5434 45.7735C28.7942 46.3996 26.9938 46.8719 25.1626 47.1849ZM40.5129 50.0077C40.4944 50.2556 40.4179 50.4956 40.2895 50.7083C40.1651 50.9192 39.9951 51.0996 39.7921 51.2364L30.3911 57.4506L29.0814 49.0228L29.4672 48.9111C33.3023 47.759 36.9384 46.0263 40.2489 43.7732L41.0408 43.2553L40.5129 50.0077ZM52.919 26.2372C50.2705 31.0469 46.7283 35.3066 42.4824 38.7875C39.9297 40.9364 37.1278 42.7706 34.1373 44.2504L33.8428 44.3926L33.6093 44.1692L15.6296 26.1763L15.7718 25.8818C17.2467 22.8881 19.0809 20.0852 21.2337 17.5352C24.715 13.2923 28.9739 9.75296 33.7819 7.10706C40.605 3.76557 48.1789 2.25404 55.7616 2.72053C56.1755 2.73406 56.5698 2.90046 56.8682 3.18761C57.1463 3.47576 57.312 3.85399 57.3352 4.25378C57.7922 11.8405 56.2704 19.4158 52.919 26.2372Z" fill="#FCDD03"/>
<path d="M18.8277 51.8761C18.7038 51.7523 18.5565 51.6545 18.3944 51.5882C18.2323 51.522 18.0586 51.4887 17.8835 51.4902C17.71 51.4889 17.5379 51.5223 17.3775 51.5886C17.2171 51.6549 17.0716 51.7526 16.9495 51.8761L11.1221 57.7045C10.8735 57.9538 10.7339 58.2916 10.7339 58.6437C10.7339 58.9958 10.8735 59.3336 11.1221 59.583C11.3763 59.8221 11.7122 59.9553 12.0612 59.9553C12.4102 59.9553 12.7461 59.8221 13.0003 59.583L18.8277 53.7546C19.0739 53.5039 19.2118 53.1666 19.2118 52.8153C19.2118 52.464 19.0739 52.1267 18.8277 51.8761ZM13.4876 46.5351C13.237 46.2889 12.8998 46.1509 12.5485 46.1509C12.1972 46.1509 11.86 46.2889 11.6094 46.5351L0.441916 57.7045C0.193315 57.9538 0.0537109 58.2916 0.0537109 58.6437C0.0537109 58.9958 0.193315 59.3336 0.441916 59.583C0.693756 59.8268 1.03051 59.9631 1.381 59.9631C1.73149 59.9631 2.06825 59.8268 2.32009 59.583L13.4876 48.4136C13.7338 48.1629 13.8717 47.8256 13.8717 47.4743C13.8717 47.123 13.7338 46.7857 13.4876 46.5351ZM8.13735 41.1941C7.88675 40.9479 7.54953 40.8099 7.19826 40.8099C6.84699 40.8099 6.50977 40.9479 6.25918 41.1941L0.441916 47.0225C0.193315 47.2718 0.0537109 47.6096 0.0537109 47.9617C0.0537109 48.3138 0.193315 48.6516 0.441916 48.9009C0.563942 49.0229 0.708847 49.1195 0.868312 49.1853C1.11149 49.2856 1.37882 49.3122 1.63698 49.2616C1.89514 49.2111 2.13271 49.0856 2.32009 48.9009L8.13735 43.0725C8.38595 42.8232 8.52555 42.4854 8.52555 42.1333C8.52555 41.7812 8.38595 41.4434 8.13735 41.1941ZM47.2643 12.7629C45.8747 11.3812 44.0492 10.5244 42.0987 10.3383C40.1482 10.1523 38.1936 10.6485 36.568 11.7425C34.9424 12.8365 33.7465 14.4605 33.1841 16.3377C32.6217 18.2149 32.7276 20.2291 33.4838 22.0369C34.24 23.8447 35.5997 25.3343 37.3311 26.2517C39.0624 27.1691 41.0583 27.4575 42.9785 27.0678C44.8987 26.6781 46.6243 25.6344 47.8613 24.1146C49.0982 22.5949 49.7698 20.693 49.7617 18.7334C49.7633 17.62 49.5444 16.5173 49.1174 15.489C48.6905 14.4608 48.0641 13.5273 47.2744 12.7425L47.2643 12.7629ZM45.3962 22.8356C44.445 23.7834 43.1944 24.3715 41.8578 24.4995C40.5213 24.6276 39.1818 24.2876 38.0679 23.5377C36.9541 22.7879 36.1351 21.6745 35.7507 20.3879C35.3663 19.1012 35.4404 17.721 35.9604 16.4828C36.4803 15.2447 37.4138 14.2255 38.6015 13.5992C39.7892 12.9729 41.1574 12.7784 42.4725 13.0489C43.7877 13.3193 44.9682 14.038 45.8125 15.0821C46.6568 16.1263 47.1125 17.4312 47.1018 18.774C47.0908 20.2998 46.4778 21.7595 45.3962 22.8356Z" fill="#FCDD03"/>
</svg>
